<svg width="48" height="34" viewBox="0 0 48 34" fill="none" xmlns="http://www.w3.org/2000/svg">
<path d="M7.296 3.088C10.4 3.088 11.952 4.63467 11.952 7.728C11.952 10.8107 10.4 12.352 7.296 12.352C5.74933 12.352 4.53867 11.8773 3.664 10.928L3.584 12H1.28V0.16H4.16V4.144C5.024 3.44 6.06933 3.088 7.296 3.088ZM4.608 9.456C5.056 9.872 5.70133 10.08 6.544 10.08C7.38667 10.08 8.016 9.904 8.432 9.552C8.85867 9.18933 9.072 8.58133 9.072 7.728C9.072 6.87467 8.85867 6.272 8.432 5.92C8.016 5.55733 7.38667 5.376 6.544 5.376C5.70133 5.376 5.056 5.584 4.608 6C4.17067 6.416 3.952 6.992 3.952 7.728C3.952 8.464 4.17067 9.04 4.608 9.456ZM18.3586 3.12C20.204 3.12 21.5693 3.55733 22.4546 4.432C23.34 5.296 23.772 6.61867 23.7506 8.4H15.7506C15.7826 9.02933 16.0173 9.49867 16.4546 9.808C16.9026 10.1067 17.5853 10.256 18.5026 10.256C19.7933 10.256 20.556 10.0107 20.7906 9.52H23.6386C23.4786 10.3733 22.9293 11.056 21.9906 11.568C21.052 12.08 19.852 12.336 18.3906 12.336C17.5693 12.336 16.8386 12.256 16.1986 12.096C15.5586 11.9467 14.9826 11.7013 14.4706 11.36C13.9693 11.0187 13.5853 10.544 13.3186 9.936C13.052 9.31733 12.9186 8.58133 12.9186 7.728C12.9186 6.23467 13.3826 5.09333 14.3106 4.304C15.2386 3.51467 16.588 3.12 18.3586 3.12ZM15.7986 6.736H20.8546C20.716 5.66933 19.884 5.136 18.3586 5.136C17.5693 5.136 16.9613 5.264 16.5346 5.52C16.1186 5.776 15.8733 6.18133 15.7986 6.736ZM10.24 29.232C9.30133 29.9893 7.94667 30.368 6.176 30.368C4.40533 30.368 3.04533 29.9893 2.096 29.232C1.15733 28.464 0.688 27.296 0.688 25.728C0.688 24.16 1.15733 22.9973 2.096 22.24C3.04533 21.472 4.40533 21.088 6.176 21.088C7.94667 21.088 9.30133 21.472 10.24 22.24C11.1893 22.9973 11.664 24.16 11.664 25.728C11.664 27.296 11.1893 28.464 10.24 29.232ZM4.16 27.504C4.55467 27.888 5.22667 28.08 6.176 28.08C7.12533 28.08 7.79733 27.888 8.192 27.504C8.58667 27.1093 8.784 26.5173 8.784 25.728C8.784 24.9387 8.58667 24.352 8.192 23.968C7.79733 23.5733 7.12533 23.376 6.176 23.376C5.22667 23.376 4.55467 23.5733 4.16 23.968C3.76533 24.352 3.568 24.9387 3.568 25.728C3.568 26.5173 3.76533 27.1093 4.16 27.504ZM19.2134 21.088C20.7814 21.088 21.9494 21.504 22.7174 22.336C23.4854 23.1573 23.8694 24.288 23.8694 25.728C23.8694 27.168 23.4854 28.2987 22.7174 29.12C21.9494 29.9413 20.7814 30.352 19.2134 30.352C17.8694 30.352 16.8347 30.1013 16.1094 29.6V33.184H13.2294V21.456H15.6774L15.7094 22.432C16.552 21.536 17.72 21.088 19.2134 21.088ZM18.4614 28.08C20.1467 28.08 20.9894 27.296 20.9894 25.728C20.9894 24.16 20.1467 23.376 18.4614 23.376C17.6187 23.376 16.9734 23.584 16.5254 24C16.088 24.416 15.8694 24.992 15.8694 25.728C15.8694 26.464 16.088 27.04 16.5254 27.456C16.9734 27.872 17.6187 28.08 18.4614 28.08ZM30.2768 21.12C32.1221 21.12 33.4874 21.5573 34.3728 22.432C35.2581 23.296 35.6901 24.6187 35.6688 26.4H27.6688C27.7008 27.0293 27.9354 27.4987 28.3728 27.808C28.8208 28.1067 29.5034 28.256 30.4208 28.256C31.7114 28.256 32.4741 28.0107 32.7088 27.52H35.5568C35.3968 28.3733 34.8474 29.056 33.9088 29.568C32.9701 30.08 31.7701 30.336 30.3088 30.336C29.4874 30.336 28.7568 30.256 28.1168 30.096C27.4768 29.9467 26.9008 29.7013 26.3888 29.36C25.8874 29.0187 25.5034 28.544 25.2368 27.936C24.9701 27.3173 24.8368 26.5813 24.8368 25.728C24.8368 24.2347 25.3008 23.0933 26.2288 22.304C27.1568 21.5147 28.5061 21.12 30.2768 21.12ZM27.7168 24.736H32.7728C32.6341 23.6693 31.8021 23.136 30.2768 23.136C29.4874 23.136 28.8794 23.264 28.4528 23.52C28.0368 23.776 27.7914 24.1813 27.7168 24.736ZM43.1918 21.12C44.5998 21.12 45.6238 21.4507 46.2638 22.112C46.9144 22.7627 47.2398 23.792 47.2398 25.2V30H44.3598V25.408C44.3598 24.704 44.1891 24.1973 43.8478 23.888C43.5064 23.568 42.9731 23.408 42.2478 23.408C40.7971 23.408 40.0558 24.0107 40.0238 25.216V30H37.1438V21.456H39.5598L39.6398 22.544C40.3864 21.5947 41.5704 21.12 43.1918 21.12Z" fill="#FFB400"/>
</svg>
