<svg width="58" height="69" viewBox="0 0 58 69" fill="none" xmlns="http://www.w3.org/2000/svg">
<g clip-path="url(#clip0_57_11841)">
<path d="M8.89538 17.3034C7.54659 14.4162 5.32884 12.0187 2.60473 10.4025C1.76893 9.77255 4.93526e-05 9 4.93526e-05 9C4.93526e-05 9 4.93611e-05 1.5 5.10812e-05 0C5.50005 0.5 11.4713 3.01413 15.1882 7.01219C15.5376 7.35946 15.8074 7.40621 16.2518 7.09233C21.3307 3.32578 28.6319 3.32356 33.6312 7.26597C34.0513 7.59988 34.5002 7.542 34.8385 7.23035C36.9125 5.55855 39.4996 4.58798 42.1175 4.34311C55.6607 2.57336 63.7379 20.6693 53.1068 29.5202C48.6602 34.0793 44.1075 38.6227 39.3779 42.8345C38.038 43.6492 35.064 47.6718 33.7241 47.0195C31.3693 44.9827 29.0454 42.8946 26.717 40.8176C26.0736 40.4459 23.6325 36.9198 23.7563 39.2594C23.281 49.0097 19.8338 59.5792 11.2967 65.1021C8.14802 67.346 4.52399 68.439 0.745176 68.9822C0 69 0 69 0 69V59C3.97118 57.4506 7.98882 54.2032 9.60736 50.3342C13.2049 41.3452 13.4326 25.9896 8.89538 17.3012V17.3034ZM23.4645 25.117C23.6989 28.0265 23.9576 30.9071 23.9133 33.8277C23.9023 34.2151 24.0902 34.5512 24.3954 34.7582C27.5175 37.572 30.4074 40.6418 33.7064 43.2753C34.0049 43.5379 34.3167 43.6225 34.582 43.302C38.7655 40.0407 42.3033 36.1562 46.0998 32.4653C49.6486 28.5853 54.9863 25.324 55.1499 19.4805C55.999 9.88163 44.2115 3.53281 36.6605 9.30952C33.5605 11.9675 34.3034 11.2329 31.3538 9.09359C27.5197 6.59146 22.3324 6.44454 18.4828 8.99342C17.4812 9.63453 17.5475 9.71912 18.2042 10.6942C21.4059 14.7902 22.3191 20.184 23.4645 25.117Z" fill="#E359DB"/>
</g>
<defs>
<clipPath id="clip0_57_11841">
<rect width="58" height="69" fill="white"/>
</clipPath>
</defs>
</svg>
