<?xml version="1.0" encoding="utf-8"?>
<!-- Generator: Adobe Illustrator 27.2.0, SVG Export Plug-In . SVG Version: 6.00 Build 0)  -->
<svg version="1.1" id="Слой_1" xmlns="http://www.w3.org/2000/svg" xmlns:xlink="http://www.w3.org/1999/xlink" x="0px" y="0px"
	 viewBox="0 0 1125 2436" style="enable-background:new 0 0 1125 2436;" xml:space="preserve">
<style type="text/css">
	.st0{fill:#28436E;}
	.st1{fill:#950CFF;}
	.st2{fill:#FF3A32;}
	.st3{fill:#FF76FE;}
	.st4{fill:#6FD52E;}
	.st5{fill:#FFB400;}
	.st6{fill:#0068FF;}
	.st7{fill:#2D81E0;}
</style>
<rect x="2.7" y="1814.57" class="st0" width="1120.92" height="621.43"/>
<g>
	<path class="st1" d="M303.66,1433.18c-0.47,0.92-0.95,1.84-1.42,2.77c-1.74,2.52-3.64,4.93-5.21,7.59
		c-17.95,30.33-38.74,57.95-62.66,82.57c-1.43,1.47-2.36,5.22-5.57,3.12c-0.43-11.72-0.81-23.45-1.31-35.17
		c-0.26-6-2.63-7.85-7.96-5.55c-11.11,4.79-22.37,9.12-33.57,13.63c-1.56,0.63-3.3,1.84-4.74,0.55c-2.07-1.86-0.08-4.29,0.55-5.69
		c4.66-10.3,6.57-21.66,10.2-32.33c0.54-1.16,1.16-2.29,1.6-3.5c3.41-9.52,3.37-9.48-5.44-9.59c-7.02-0.09-14.11,0.86-21.03-1.35
		c-4.53-0.08-9.07-0.1-13.6-0.27c-1.83-0.07-4.15,0.8-5.23-1.48c-1.22-2.58,1.29-3.68,2.41-5.15c4.95-6.47,10.04-12.81,15.07-19.2
		c3.04-3.72,5.88-7.69,9.18-11.1c3.7-3.83,4.36-5.82-1.13-8.65c-12.81-6.59-25.27-14.03-38.11-21.25c3.36-4.38,7.99-4.68,11.38-7.43
		c1.08-0.16,2.23-0.14,2.8-1.5c8.38-4.3,16.7-8.75,25.16-12.84c4.65-2.24,3.37-4.4,0.78-7.57c-9.25-11.33-18.33-22.83-28-34.9
		c7.26-3.12,14.02-3.09,20.73-3.36c7.91,1.43,15.64-1.06,23.46-1.41c4.29-0.19,3.74-2.49,2.65-5.81
		c-3.71-11.28-7.28-22.61-10.78-33.97c-1.16-3.74-3.27-7.34-2.55-12.05c13.21,5.16,25.96,9.88,38.52,15.17
		c6.08,2.56,7.86,0.19,7.7-6.27c-0.32-13.13,0.19-26.22,1.49-39.28c0.18-1.81-0.52-4.07,1.26-5.14c2.4-1.45,3.29,1.38,4.55,2.67
		c7.93,8.14,15.63,16.59,23.69,24.55c7.89,7.79,9.71,6.99,12.41-4.42c5.64-12.39,11.28-24.78,17.37-38.15
		c4.03,10.74,8.14,19.73,12.87,28.35c6.7,23.7,6.77,23.72,22.52,7.46c6.32-6.52,12.65-13.04,19.03-19.49
		c0.97-0.98,2.03-2.88,3.54-1.53c0.7,0.62,0.7,2.36,0.83,3.62c0.78,7.07-1.62,14.45,1.7,21.27c-0.07,3.71-0.19,7.42-0.21,11.13
		c-0.07,16.3-0.06,16.3,13.71,12.91c0.66,0.08,1.32,0.15,1.99,0.23c-0.66,3.71-1.32,7.42-1.98,11.13
		c-3.92,7.56-5.44,15.94-6.68,24.42c-4.58,8.8-6.4,18.84-9.92,28.12c-4.09,10.81-7.93,21.75-11.88,32.64
		C324.13,1392.41,314.48,1413.16,303.66,1433.18z"/>
	<path class="st2" d="M56.13,375.12c15.79,5.09,31.57,10.18,47.36,15.27c1,0.33,2,0.67,3,1c12.36,6.05,24.85,11.77,37.04,18.22
		c23.78,12.58,45.53,28.96,66.87,46.05c1,2.76,3.26,3.8,5.41,4.99c4.36,6.7,14.41,9.3,11.95,20.91c-2,2.19-4.53,1.26-6.82,1.3
		c-7.89,0.13-15.79,0-23.68,0.13c-1.75,0.03-4.24-1.05-5.02,1.6c-0.59,2,1.47,3.14,2.59,4.42c5.19,5.94,10.22,12.1,15.77,17.6
		c4.59,4.56,5.45,7.9,0.13,12.72c-4.17,3.79-8.5,7.86-10.52,13.89c-6.99,2.95-9.33,11.07-14.3,16.26c-2.27,2.35-4.82,4.44-6.75,7.09
		c-3.78,5.18-6.88,5.14-10.96,0.09c-5.75-7.13-12.1-13.64-18.2-20.42c-0.29-1-0.6-2.21-1.76-1.92c-1.13,0.28-1.11,1.46-0.88,2.54
		c0.16,6.89,0.33,13.78,0.49,20.67c-0.31,5.39-0.62,10.78-0.93,16.17c-0.45,0.4-0.91,0.8-1.36,1.19c-17.97,0.1-35.94,0.09-53.9,0.37
		c-4.3,0.07-6.19-1.5-5.93-6.44c0.14-2.65-0.3-5.34-0.48-8.01c0.16-7.93,0.33-15.85,0.49-23.78c0.29-0.94,0.51-2.1-0.54-2.32
		c-0.47-0.1-1.16,1.05-1.74,1.64c-2.02,0.08-3.42,1.18-4.27,3.21c-6.19,6-11.94,12.48-17.3,19.4c-1.81,0.6-2.78,4.33-5.41,1.81
		c0,0-0.23-0.18-0.23-0.18c-9.83-11.64-19.66-23.27-29.49-34.91c-0.16-0.32-0.4-0.49-0.73-0.5c-1.46-1.63-2.91-3.26-4.37-4.89
		c-2.82-3.96-8.14-7.56-1.44-12.86c6.95-7.64,13.9-15.28,22.01-24.2c-10.26,0-18.3,0-26.35,0c-0.94-0.11-1.92-0.46-2.82-0.29
		c-7.27,1.33-8.62-2.71-8.42-10c0.37-13.83-0.1-27.68-0.23-41.53c0-0.54-0.01-1.07-0.01-1.61c1.26-16.9,1.26-16.91,17.11-16.97
		c6.16-0.02,12.32,0,20.04,0c-8.04-9.67-14.79-18.17-21.94-26.22c-2.9-3.26-3.31-4.82-0.29-8.73c5.73-7.43,11.76-9.74,20.15-6.51
		C44.77,373.45,50.55,373.93,56.13,375.12z"/>
	<path class="st3" d="M262.1,1005.2c-10.03,10.55-19.91,21.29-30.16,31.58c-4.91,4.93-10.14,9.45-14.51,15.03
		c-1.79,2.28-2.91,1.18-4.48-0.47c-3.44-3.64-7.12-7.01-10.72-10.46c-2.47-2.36-3.77-5.04-3.64-8.97
		c0.27-8.28,0.02-16.59-0.02-24.88c-0.04-9.7-0.09-19.41-0.13-29.11c0.15-1.75,0.86-3.65-0.99-4.89c-0.12-1.07-0.23-2.13-0.35-3.2
		c0.8-14.6,0.16-29.14-1.45-43.65c1.5-10.89-1.82-21.51-1.36-32.34c-1.46-12.93-2.92-25.87-4.39-38.8c0.08-1.62,0.17-3.23,0.25-4.85
		c6.99,1.86,13.37,5.01,18.8,10.5c4.44,4.49,8.22,4.95,13.54-0.15c19.11-18.29,51.95-18.2,72.03-0.71c2.6,2.26,5.29,4.38,7.95,6.56
		c22.12,28.25,23.75,65.98-1.01,96.44C288.34,976.95,275.22,991.07,262.1,1005.2z"/>
	<path class="st4" d="M351.62,686.89c0,14.01,0,28.02,0,42.03c-0.71,13.89,0.36,27.84-1.51,41.7
		c-2.63,19.42-10.87,35.08-24.49,47.23c-1.12,1-2.38,1.72-2.96,3.28c-6.24,3.45-12.48,6.9-18.72,10.36
		c-19.06,5.38-37.29,2.98-54.68-7.36c-0.93-0.5-1.86-1.01-2.8-1.51c-1.15-1.31-2.29-2.62-3.44-3.93
		c-6.78-5.25-11.47-12.55-15.74-20.25c-0.53-1.07-1.06-2.14-1.59-3.2c-4.55-6.7-5.24-14.9-7.01-22.68
		c-6.85-39.25,18.66-76.23,48.15-84.76c11.82-3.42,23.76-1.96,35.63-2.94c13.64,0.1,27.29,0.16,40.93,0.35
		C346.19,685.24,349.21,684.36,351.62,686.89z"/>
	<path class="st5" d="M-0.13,1624.6c0.09-25.64,0.25-51.27,0.21-76.91c-0.01-3.91,0.58-7.29,2.89-10.22
		c1.27-0.7,2.65-1.24,3.79-2.14c14.92-11.77,30.03-23.27,44.62-35.55c6.46-5.44,11-6.98,18.27-0.56
		c10.31,9.1,20.91,18.08,32.54,25.19c1.76,3.35,4.98,4.61,7.62,6.69c8.49,6.7,18.54,12.24,15.59,27.2
		c-0.11,13.72-0.31,27.45-0.26,41.17c0.02,4.28-1.03,6.18-4.97,8.07c-16.41,7.84-33.42,13.49-50.46,19.12
		c-7.07,1.86-14.17,3.56-21.19,5.61c-13.7,3.99-27.8,5.43-41.67,8.32c-4.22,0.88-7.65,0.08-6.74-6.36c0.22-1.54-0.14-3.19-0.23-4.78
		C-0.13,1627.83-0.13,1626.21-0.13,1624.6z"/>
	<path class="st1" d="M126.52,635.15c1.78-3.69,3.43-2.55,5.34-0.01c3.76,5,6.03,14.12,11.71,13.78c4.9-0.29,7.06-9.27,10.67-14.2
		c2.43-3.32,3.91-4.19,5.29,0.57c0.43,1.63,0.87,3.26,1.3,4.89c0.57,2.88,1.32,5.73,1.67,8.64c0.69,5.78,2.76,6.77,7.04,3.36
		c3.3-2.64,6.94-4.76,10.49-6.98c1.14-0.71,2.51-2.33,3.74-0.79c0.62,0.77,0.74,2.82,0.27,3.8c-2.13,4.45-0.55,9.48-2.18,14.13
		c-1.39,3.97,0.17,6.14,4.81,5.6c5.89-0.68,11.66-3.12,17.71-1.98c-1.27,5.6-4.56,10-7.16,14.76c-2.98,5.44-3.93,8.66,3.51,10.11
		c4.72,0.92,10.23,1.02,14.58,5.37c-3.02,2.87-5.55,5.28-8.09,7.69c-1.02,0.69-2.09,1.29-3.05,2.07c-6.59,5.36-6.54,5.3-0.19,10.89
		c3.95,3.48,8.71,5.99,11.74,11.12c-5.75,1.78-10.93,3.59-16.21,4.95c-4.22,1.08-5.93,2.62-2.84,7.34
		c2.39,3.64,4.24,7.72,6.23,11.68c0.78,1.55,2.33,3.28,1.1,5.06c-1.12,1.62-3.04,1.04-4.68,0.65c-1.14-0.27-2.27-0.59-3.41-0.89
		c-2.77-0.7-5.59-0.41-8.42-1.37c-4.34-1.47-7.15-0.56-4.88,5.87c1.11,3.14,1.1,6.76,1.67,10.15c0.86,5.14,0,8.56-5.65,7.41
		c-2.95-4.19-4.2-9.09-4.7-14.3c-6.23-23.02-13.31-45.7-21.51-67.94c0.12-1.02-0.38-1.43-1.19-1.53
		c-7.21-13.55-14.35-27.16-21.7-40.62c-1.94-3.56-5.03-6.41-4.45-11.18c0.13-1.05,0.26-2.1,0.39-3.16
		C127.19,638.8,126.66,636.92,126.52,635.15z"/>
	<path class="st2" d="M200.21,1223.92c-4.76-1.19-9.56,0.52-13.81,1.74c-8.17,2.34-8.26-2.02-7.62-8.43
		c2.5-7.29,4.4-14.72,4.33-22.63c1.32-0.72,1.23-1.98,1.02-3.3c2.24-10.09,3.61-20.34,4.31-30.7c2.51-6.98,3.08-14.42,3.23-21.74
		c0.28-13.27,3.25-24.91,12.87-33.51c8.1,4.67,14.24,12.27,21.55,18.1c2.29,1.82,0.94,2.87-0.1,4.42c-2.54,3.78-4.95,7.68-7.85,12.2
		c3.3,1.35,6.33,1.85,8.66,0.56c6.15-3.42,8.02,0.13,8.86,5.96c0.38,2.63,0.33,5.33,0.74,7.95c2.9,18.8,2.93,18.8-13.61,21.07
		c2.05,6.87,10.02,7.25,11.92,13.95c-4.45,6.22-9.19,12.22-13.26,18.74c-3.36,5.39-6.21,7.86-11.09,1.95
		c-1.69-2.04-3.92-4.33-7.11-4.65c0.02,4.71-0.82,8.98,0.54,13.15C205.09,1222.69,202.59,1223.24,200.21,1223.92z"/>
	<path class="st4" d="M70.73,1424.21c9.28-4.33,14.78-13.67,21.94-20.82c2.39-2.39,4.15-6.06,8.18-5.18
		c0.79,1.84,1.84,0.87,2.84,0.32c1.38,0.98,2.7,2.09,4.14,2.94c16.88,9.91,26.51,34.94,15.39,56.65
		c-4.64,9.06-12.07,14.08-19.52,19.3c-15.29,4.17-28.82,0.91-40.07-11.97c-2.21-2.72-4.31-5.39-5.75-8.88
		c-6.32-15.31-5.78-17.73,6.93-26.18c1.02-0.9,2.03-1.8,3.05-2.71C69.27,1426.99,70.22,1425.83,70.73,1424.21z"/>
	<path class="st6" d="M168.39,575.33c1.41-1.93,2.77-4,5.14-1.35c0.68,0.75,1.47,1.37,2.13,2.14c6.51,7.48,12.06,17.19,24.42,10.73
		c-1.47,7.46-5.55,10.91-7.16,15.8c-7.38,11.46-14.19,23.35-20.58,35.53l-0.5-0.04c-1.09-1.58-2.18-3.15-3.27-4.73
		c-8.45-14.64-16.91-29.28-26.34-45.6C154.76,590.27,162.98,585.96,168.39,575.33z"/>
	<path class="st5" d="M209.91,610.88c0.03-15.07,0.07-30.14,0.1-45.21c0-0.56,0.01-1.11,0.01-1.67
		c-1.37-10.04,1.77-16.95,10.05-21.93c6.81-4.09,12.74-10.02,19.06-15.13c4.71-3.58,9.87-6.61,14.03-10.86
		c5.62-5.73,10.03-5.39,14.41,1.26c9.45,14.08,18.9,28.16,28.35,42.24c2.16,3.7,4.32,7.41,6.48,11.11
		c11.89,22.04,22.86,44.64,32.9,67.81c1.65,5.77,7.23,13.04,4.92,16.56c-2.93,4.47-10.64,1.23-16.28,1.54
		c-7.15,0.39-14.31,0.38-21.47,0.55c-25.03-0.16-50.07-0.37-75.1-0.48c-16.46-0.07-16.46-0.01-17.46-18.26
		C209.92,629.23,209.91,620.05,209.91,610.88z"/>
	<path class="st2" d="M393.46,953.64c-1.65,9.72,2.58,19.22,0.87,28.95c-6.47-0.03-12.95-0.41-19.4,0
		c-5.17,0.33-6.84-1.96-6.36-7.44c0.3-3.37,0.05-6.81,0.05-10.75c-1.37,0.52-2.1,0.58-2.58,1.01c-3.73,3.3-6.47,10.25-10.86,9.61
		c-3.52-0.51-6.58-6.5-9.49-10.39c-3.01-4.02-9.16-7.17-8.48-12c0.63-4.41,5.82-8,9.1-12.09c-2.43-2.69-5.27-1.77-7.59-1.42
		c-7.23,1.08-9.55-2.48-8.49-9.99c0.11-0.79,0-1.61,0.02-2.42c0.16-6.16-1.26-13.17,0.9-18.27c2.49-5.87,9.78-0.48,14.55-3.45
		c-0.04-3.08-2.28-4.76-3.95-6.16c-6.47-5.44-5.15-10.07,0.59-14.68c0.19-0.15,0.35-0.37,0.51-0.56c3.9-4.37,7.16-10.47,11.86-12.66
		c5.46-2.55,6.59,7.68,11.84,8.63c2.93-5-2.98-14.1,3.59-15.77c5.21-1.33,12.49-4.42,17.54,2.55c0.51,2.7,1.03,5.4,1.54,8.1
		c0.88,12.48,1.42,24.98,2.55,37.46C393.06,925.73,392.97,939.72,393.46,953.64z"/>
	<path class="st6" d="M295.45,1189.33c-0.49-5.65-3.98-9.62-6.52-14c-20.46-35.3-41.1-70.46-61.63-105.71
		c-1.25-2.14-4-4.25-2.62-6.92c1.07-2.07,3.98-0.95,6.07-0.96c12.48-0.07,24.96-0.23,37.43,0.06c4.47,0.1,7.7-1.43,10.7-5.09
		c8.26-10.1,16.77-19.95,25.18-29.9c3.29-3.5,6.85-6.74,9.81-10.57c4.18-5.4,7.11-4.95,11.49,0.32
		c10.24,12.33,21.17,23.94,31.82,35.85c3.42,6.34,8.24,8.95,14.96,8.17c5.2-0.6,10.49-0.18,15.74-0.09
		c2.23,0.04,5.02-0.88,5.59,3.08c-1.31,14.5-0.71,29.17-3.17,43.56c-9.51,15.37-19.07,30.7-27.4,46.94
		c-7.47,12.21-15.29,24.16-21.63,37.19c-6.24,10.08-12.74,19.98-18.6,30.33c-2.67,4.7-4.31,3.95-6.67,0.25
		c-3.44-5.39-6.92-10.75-10.39-16.12C303.43,1199.31,300.31,1193.64,295.45,1189.33z"/>
	<path class="st6" d="M184.31,1529.17c-5.27,9.15-10.54,18.3-15.81,27.45c-0.51,0.99-1.03,1.98-1.54,2.97
		c-3.77,5.78-7.54,11.55-11.66,17.87c-4.06-6.69-7.85-12.93-11.63-19.16c-7.24-13.33-16.48-25.29-23.57-42.27
		c14.65,7.15,20.94-3.56,28.28-11.85c1.84-2.07,3.83-3.97,5.75-5.95c3.28,0.3,4.53,3.96,7.12,5.41c3.52,4.47,6.69,9.35,11.62,12.13
		c0.96,0.04,1.91,0.07,2.87,0.11c4.84,0,9.67,0,15.74,0C188.42,1521.53,186.37,1525.35,184.31,1529.17z"/>
	<path class="st3" d="M-0.13,1482.33c0.09-2.94,0.54-5.94,0.21-8.82c-0.71-6.1,1.71-9.39,6.65-7.14c6.75,3.07,12.86,0.38,19.23-0.49
		c1.44,0.03,2.88,0.05,4.31,0.08c11.39,9.65,11.99,18.04,1.91,29.2c-4.73,5.24-9.66,10.25-14.52,15.34
		c-1.34,1.41-2.83,3.75-4.74,1.35c-5.59-7.04-15.05-11.54-12.82-23.91c0.13-0.75-0.15-1.59-0.23-2.38
		C-0.13,1484.48-0.13,1483.4-0.13,1482.33z"/>
</g>
<ellipse class="st7" cx="562.5" cy="1814.57" rx="561.12" ry="120"/>
</svg>
