<svg width="92" height="42" viewBox="0 0 92 42" fill="none" xmlns="http://www.w3.org/2000/svg">
<path d="M34.9184 27.0497C34.9723 27.3619 35 27.6789 35 28C35 32.8325 28.732 36.75 21 36.75C13.268 36.75 7 32.8325 7 28C7 27.6789 7.02767 27.3619 7.0816 27.0497C10.2805 30.8187 15.3248 33.25 21 33.25C26.6657 33.25 31.7025 30.8268 34.9008 27.0692L34.9184 27.0497ZM34.9184 20.0497C34.9723 20.3619 35 20.6789 35 21C35 25.8325 28.732 29.75 21 29.75C13.268 29.75 7 25.8325 7 21C7 20.6789 7.02767 20.3619 7.0816 20.0497C10.2805 23.8187 15.3248 26.25 21 26.25C26.6657 26.25 31.7025 23.8268 34.9008 20.0692L34.9184 20.0497ZM21 5.25C28.732 5.25 35 9.16751 35 14C35 18.8325 28.732 22.75 21 22.75C13.268 22.75 7 18.8325 7 14C7 9.16751 13.268 5.25 21 5.25Z" fill="#FFB400"/>
<path d="M49.2578 30V15.9141H49.0586L44.8164 18.9141V16.2305L49.2695 13.0898H51.8828V30H49.2578ZM62.2541 30.4102C60.5744 30.4102 59.1916 29.9414 58.1056 29.0039C57.0197 28.0664 56.4377 26.8555 56.3595 25.3711H58.8556C58.9572 26.1914 59.3205 26.8516 59.9455 27.3516C60.5705 27.8516 61.3478 28.1016 62.2775 28.1016C63.3322 28.1016 64.1838 27.7812 64.8322 27.1406C65.4806 26.5 65.8048 25.6523 65.8048 24.5977C65.8048 23.543 65.4806 22.6875 64.8322 22.0312C64.1838 21.3672 63.3439 21.0352 62.3127 21.0352C61.5939 21.0352 60.9494 21.1875 60.3791 21.4922C59.8088 21.7969 59.3595 22.2227 59.0314 22.7695H56.6291L57.5197 13.0898H67.3869V15.4336H59.5705L59.1252 20.3906H59.3244C60.1213 19.3672 61.3127 18.8555 62.8986 18.8555C64.508 18.8555 65.8205 19.3867 66.8361 20.4492C67.8595 21.5039 68.3713 22.8633 68.3713 24.5273C68.3713 26.2773 67.8048 27.6953 66.672 28.7812C65.547 29.8672 64.0744 30.4102 62.2541 30.4102ZM77.1956 30.4102C75.2191 30.4102 73.68 29.6328 72.5784 28.0781C71.4847 26.5234 70.9378 24.3398 70.9378 21.5273C70.9378 18.7383 71.4886 16.5664 72.5902 15.0117C73.6917 13.457 75.2269 12.6797 77.1956 12.6797C79.1488 12.6797 80.6761 13.4609 81.7777 15.0234C82.8792 16.5781 83.43 18.7539 83.43 21.5508C83.43 24.3555 82.8831 26.5352 81.7894 28.0898C80.6956 29.6367 79.1644 30.4102 77.1956 30.4102ZM74.5238 26.4141C75.1488 27.5469 76.0394 28.1133 77.1956 28.1133C78.3519 28.1133 79.2386 27.5508 79.8558 26.4258C80.473 25.293 80.7816 23.6602 80.7816 21.5273C80.7816 19.418 80.4691 17.8008 79.8441 16.6758C79.2191 15.543 78.3363 14.9766 77.1956 14.9766C76.055 14.9766 75.1683 15.543 74.5355 16.6758C73.9027 17.8086 73.5863 19.4258 73.5863 21.5273C73.5863 23.6523 73.8988 25.2812 74.5238 26.4141Z" fill="black"/>
</svg>
