<svg width="52" height="69" viewBox="0 0 52 69" fill="none" xmlns="http://www.w3.org/2000/svg">
<path d="M35.5243 55.5484C30.7467 55.5484 25.9677 55.585 21.1916 55.5206C20.0631 55.5059 19.4351 55.9277 18.936 56.8679C15.3923 63.6282 8.33869 68.0277 0.844457 68.9738C0.273607 69.0704 0.0686871 68.9005 0.0730782 68.2942C0.348257 66.9146 -0.56803 59.3254 0.655637 59.4367C1.98323 58.99 3.21421 58.3661 4.30029 57.4215C4.75697 56.7215 7.25407 55.6963 6.19434 54.8132C5.6191 54.3782 5.54299 53.7763 5.6835 53.1744C5.94697 43.6359 5.70253 34.0608 5.79767 24.5076C5.79767 24.121 5.98503 22.8219 6.95694 22.0926C7.71075 21.5258 10.303 20.2575 9.85363 19.3451C9.16422 17.6287 8.35186 15.9782 7.17649 14.5327C5.47858 12.3828 3.30789 10.454 0.623436 9.70558C0.234087 9.58403 0.0964977 9.40682 0.095034 9.0568C0.34533 7.92325 -0.541683 -0.670629 0.649783 0.0425984C3.7192 0.32086 6.75787 1.27281 9.47892 2.68901C23.3125 10.7146 15.1201 16.5918 24.7074 9.59135C29.0064 5.89926 29.3342 6.99766 33.5746 9.95163C37.8853 13.2498 42.4769 16.1935 46.8783 19.3715C48.5821 20.9254 51.8389 21.7104 51.9955 24.3392C51.9926 34.0476 51.9984 43.7545 51.9984 53.4629C51.9984 54.7971 51.2417 55.5586 49.9302 55.5586C45.1277 55.5586 40.3253 55.5586 35.5228 55.5586V55.5484H35.5243ZM49.4194 38.6491H49.4252C49.4252 34.1838 49.4106 29.7199 49.4413 25.2545C49.4457 24.594 49.254 24.1078 48.7314 23.7666C46.7188 22.242 44.5847 21.0235 42.5662 19.5341C38.238 16.4366 33.822 13.4152 29.5699 10.2065C28.1955 9.29845 26.5737 11.6651 25.3895 12.2846C24.1337 13.2995 22.7402 14.146 21.3804 15.0277C20.8432 15.3763 20.7554 15.7541 21.0072 16.3136C21.5809 17.5877 21.9395 18.938 22.3201 20.278C24.6372 29.2908 24.6123 39.0446 22.4767 48.0925C21.9893 49.5116 21.8312 51.0362 21.1257 52.3879C20.8959 52.8288 21.0159 53.0279 21.5019 53.0309C30.4745 53.0353 39.4485 53.0177 48.4226 53.0133C49.3974 53.0133 49.4208 52.9855 49.4208 52.0438C49.4208 47.5784 49.4208 43.1145 49.4208 38.6491H49.4194ZM8.52604 52.2517C12.6581 45.6247 12.2483 35.8665 11.9306 28.2671C11.9306 26.4511 11.1095 24.7786 11.1212 22.9655C11.1241 22.5598 10.7158 22.5129 10.4011 22.7297C9.70287 23.4502 8.2977 23.7534 8.36942 24.9235C8.51287 34.0198 8.15279 43.2009 8.5275 52.2503L8.52604 52.2517Z" fill="#FFB400"/>
</svg>
